<?xml version="1.0" encoding="UTF-8"?>
<svg version="1.1" xmlns="http://www.w3.org/2000/svg" width="695" height="660">
<path d="M0 0 C229.35 0 458.7 0 695 0 C695 217.8 695 435.6 695 660 C465.65 660 236.3 660 0 660 C0 442.2 0 224.4 0 0 Z " fill="#FEFEFE" transform="translate(0,0)"/>
<path d="M0 0 C1.21259381 -0.00311998 2.42518762 -0.00623996 3.67452669 -0.00945449 C7.01912122 -0.0160248 10.3634893 -0.01369624 13.7080698 -0.00748205 C17.32382018 -0.00294104 20.93955134 -0.00994974 24.55529785 -0.01544189 C31.63243684 -0.02432213 38.70953333 -0.02241936 45.78667396 -0.01661661 C51.54480298 -0.01209188 57.30292013 -0.01149074 63.06105042 -0.01366425 C63.88198037 -0.01397071 64.70291032 -0.01427718 65.54871693 -0.01459293 C67.2167517 -0.01523242 68.88478646 -0.01588085 70.55282122 -0.01653811 C86.18689166 -0.02223814 101.82093864 -0.01569014 117.45500523 -0.00493738 C130.84049867 0.00398447 144.22595739 0.00245674 157.6114502 -0.0067749 C173.17883262 -0.01750642 188.74619443 -0.02167482 204.31358004 -0.01555037 C205.97777589 -0.01491333 207.64197174 -0.01428459 209.3061676 -0.01366425 C210.5341544 -0.01320142 210.5341544 -0.01320142 211.78694901 -0.01272924 C217.52735889 -0.01100993 223.26775561 -0.01390114 229.00816345 -0.01862335 C236.01998062 -0.02426487 243.03175309 -0.02264816 250.04356521 -0.01206186 C253.61427862 -0.00684672 257.18491782 -0.00467615 260.75563049 -0.01136017 C299.75153886 -0.07813165 299.75153886 -0.07813165 311.53137207 5.56646729 C312.93750399 6.19433597 314.34375481 6.82193843 315.75012207 7.44927979 C316.41785645 7.75639893 317.08559082 8.06351807 317.77355957 8.37994385 C321.55171282 10.07745748 325.44003202 11.51816896 329.30090332 13.01568604 C332.01422504 14.40522236 333.64016991 16.04294527 335.71887207 18.25396729 C336.90774345 19.17547239 338.11651906 20.07187462 339.34387207 20.94146729 C350.78175702 29.3974083 359.73374127 38.33242661 365.71887207 51.25396729 C366.33375488 52.39092041 366.33375488 52.39092041 366.96105957 53.55084229 C369.73586558 58.68681862 371.71910384 63.88990672 373.46887207 69.44146729 C373.67963379 70.10678467 373.89039551 70.77210205 374.10754395 71.45758057 C375.39510693 75.70337226 376.11681457 79.86675198 376.71887207 84.25396729 C377.04887207 84.58396729 377.37887207 84.91396729 377.71887207 85.25396729 C377.82193576 87.10346057 377.85409085 88.95692507 377.85931396 90.8092804 C377.86502411 92.01599899 377.87073425 93.22271759 377.87661743 94.46600342 C377.87786302 95.8159789 377.87898806 97.1659545 377.88000488 98.51593018 C377.88463129 99.92852407 377.8896557 101.34111671 377.89505005 102.75370789 C377.90820874 106.6058393 377.91462781 110.45795325 377.91906071 114.31010365 C377.92199089 116.72153855 377.92609599 119.13296867 377.93056488 121.54440117 C377.94425999 129.10176035 377.95391207 136.65910863 377.95776677 144.21647936 C377.96222769 152.91388612 377.97967483 161.61113417 378.00876737 170.30849272 C378.03050121 177.04246842 378.04047754 183.77639991 378.04180789 190.51041025 C378.04284925 194.52508447 378.04861038 198.53960992 378.0666275 202.5542469 C378.0833074 206.34555136 378.08516905 210.13659858 378.07648849 213.92792702 C378.0753704 215.95497155 378.08894027 217.98200829 378.10324097 220.00900269 C378.04969884 232.01710709 376.54306013 244.13915166 371.78137207 255.25396729 C371.52194824 255.8693335 371.26252441 256.48469971 370.99523926 257.11871338 C369.08453791 261.59477397 366.95813883 265.93538139 364.71887207 270.25396729 C364.38887207 271.12021729 364.05887207 271.98646729 363.71887207 272.87896729 C361.42672743 278.3228108 357.8699364 282.16332602 353.71887207 286.25396729 C352.89129395 287.1163501 352.06371582 287.97873291 351.21105957 288.86724854 C345.21878166 295.04734411 339.09967429 300.71093382 331.71887207 305.25396729 C331.05887207 305.25396729 330.39887207 305.25396729 329.71887207 305.25396729 C329.53324707 305.87271729 329.34762207 306.49146729 329.15637207 307.12896729 C327.3972665 309.72938422 326.01355512 309.93382092 323.04309082 310.62506104 C320.00514738 311.44709279 317.1457239 312.59871967 314.21887207 313.75396729 C298.07425672 320.01000573 282.98932041 320.53207395 265.90637207 320.37896729 C263.94218394 320.36891365 261.97799082 320.35979203 260.01379395 320.35162354 C255.24869428 320.32980755 250.48383979 320.2954101 245.71887207 320.25396729 C245.72331329 321.39100601 245.72775452 322.52804474 245.73233032 323.69953918 C245.77290857 334.42541602 245.80287195 345.15127724 245.82249641 355.87721348 C245.83292476 361.39125841 245.84706673 366.90524127 245.86975098 372.41925049 C245.89151305 377.74253384 245.90344784 383.06575755 245.90862656 388.38908195 C245.91231626 390.41800818 245.91952131 392.44693121 245.93033218 394.47583199 C245.94489171 397.32195158 245.94684813 400.16782609 245.94592285 403.01397705 C245.9531134 403.84907806 245.96030396 404.68417908 245.9677124 405.54458618 C245.94664191 411.55094927 245.6185108 416.95137488 241.65637207 421.75396729 C238.08948275 423.57535758 235.96707613 423.69336129 232.05871582 423.06256104 C227.72780754 421.56590325 224.85217924 418.49079782 221.71887207 415.25396729 C220.41949707 413.98552979 220.41949707 413.98552979 219.09387207 412.69146729 C218.31012207 411.88709229 217.52637207 411.08271729 216.71887207 410.25396729 C216.21355957 409.77056885 215.70824707 409.28717041 215.18762207 408.78912354 C214.39871582 408.02922119 214.39871582 408.02922119 213.59387207 407.25396729 C213.11691895 406.80021729 212.63996582 406.34646729 212.14855957 405.87896729 C210.71887207 404.25396729 210.71887207 404.25396729 209.36730957 401.92974854 C207.40856723 398.75027341 205.02175196 396.14069893 202.46887207 393.44146729 C201.4773072 392.37699563 200.4864212 391.3118912 199.49621582 390.24615479 C199.0178125 389.73278564 198.53940918 389.2194165 198.04650879 388.69049072 C195.77560172 386.2333342 193.58689868 383.7068476 191.39465332 381.17974854 C188.84288356 378.24729517 186.25098347 375.35082228 183.66418457 372.44927979 C181.95716552 370.52288479 180.27374637 368.57897212 178.59387207 366.62896729 C175.06528808 362.58003911 171.39133444 358.67177161 167.71887207 354.75396729 C156.09568952 342.35103244 156.09568952 342.35103244 151.65637207 336.56646729 C149.72213157 334.25785765 147.62404166 332.54263093 145.24574947 330.71002579 C143.47668172 329.0230101 142.60174254 327.27402325 141.41383362 325.14453125 C139.32633563 322.34381074 138.24117191 321.38577724 134.81835747 320.52198029 C131.02445894 320.25515845 127.27281628 320.24381874 123.4744873 320.31744385 C122.01687461 320.31638549 120.5592608 320.31174987 119.10166931 320.30381775 C115.96803723 320.29435646 112.83589745 320.30998104 109.70245171 320.34519196 C104.73722235 320.4006916 99.77298223 320.39929856 94.80751038 320.39038086 C86.94287571 320.38288035 79.07890044 320.41260603 71.21441275 320.45859981 C57.16067159 320.54050789 43.10692017 320.57797035 29.05294377 320.57399154 C24.12882937 320.57430295 19.20547422 320.59669775 14.28153503 320.63752699 C11.20091833 320.65944832 8.12041574 320.66486487 5.03972816 320.66645241 C3.62448138 320.67066429 2.20923352 320.68168444 0.79410553 320.70049858 C-8.64647397 320.82169858 -16.40880371 319.4413651 -25.28112793 316.25396729 C-26.53925293 315.90334229 -27.79737793 315.55271729 -29.09362793 315.19146729 C-39.36446126 312.17063395 -39.36446126 312.17063395 -42.28112793 309.25396729 C-43.49800293 308.86209229 -44.71487793 308.47021729 -45.96862793 308.06646729 C-50.24192893 306.55187959 -52.60824494 304.22226414 -55.64440918 300.93365479 C-57.3417508 299.06630654 -57.3417508 299.06630654 -60.09362793 297.44146729 C-71.037916 289.93068135 -79.25512002 278.93053089 -85.28112793 267.25396729 C-86.04103027 265.89658447 -86.04103027 265.89658447 -86.81628418 264.51177979 C-90.44143988 257.79588938 -92.38404118 251.50144834 -93.73815918 243.99224854 C-93.99797977 241.35175896 -93.99797977 241.35175896 -95.28112793 240.25396729 C-96.4228528 232.6213391 -96.43553777 225.04884641 -96.44226074 217.34332275 C-96.44689864 215.95748261 -96.45192458 214.57164373 -96.45730591 213.18580627 C-96.47033894 209.44371631 -96.47685702 205.7016442 -96.48131657 201.95953512 C-96.48426225 199.61372869 -96.48836978 197.26792698 -96.49282074 194.92212296 C-96.50647212 187.55967989 -96.51615011 180.19724781 -96.52002263 172.83479297 C-96.5244968 164.37856704 -96.54202481 155.92250327 -96.57102323 147.46632659 C-96.59274376 140.90120589 -96.60273242 134.33613047 -96.60406375 127.77097428 C-96.60510444 123.8632017 -96.61085335 119.95558202 -96.62888336 116.04784775 C-96.64554466 112.36560123 -96.64743365 108.68361963 -96.63874435 105.0013485 C-96.63762534 103.03263266 -96.65120245 101.06392488 -96.66549683 99.09526062 C-96.60047755 84.95885912 -94.34666643 68.70277322 -87.28112793 56.25396729 C-86.62112793 56.25396729 -85.96112793 56.25396729 -85.28112793 56.25396729 C-85.19476074 55.6622876 -85.10839355 55.07060791 -85.01940918 54.46099854 C-83.99569016 48.70375306 -82.67593341 46.26661577 -78.28112793 42.25396729 C-76.98634434 40.47953153 -75.71806548 38.68561961 -74.46862793 36.87896729 C-71.3718406 32.52704266 -68.18382986 29.05129137 -64.04284668 25.69146729 C-62.33672029 24.29932868 -60.82461794 22.82202212 -59.28112793 21.25396729 C-58.2108654 20.26053053 -57.12691256 19.28167945 -56.03112793 18.31646729 C-55.21901855 17.59136963 -55.21901855 17.59136963 -54.39050293 16.85162354 C-49.12824394 12.8659496 -43.50620008 10.39620621 -37.34362793 8.19146729 C-36.67911621 7.948479 -36.01460449 7.70549072 -35.32995605 7.45513916 C-33.98577268 6.96361915 -32.64021852 6.47583209 -31.29333496 5.99176025 C-29.95974826 5.50278925 -28.63229824 4.99671991 -27.31188965 4.47320557 C-18.18726172 0.87441074 -9.78550565 -0.03892113 0 0 Z " fill="#2AC5DC" transform="translate(174.2811279296875,146.74603271484375)"/>
<path d="M0 0 C6.54617279 -0.47608529 11.39732976 0.45439872 17 4 C21.42085447 7.98616795 23.68367178 11.36830869 24.203125 17.33203125 C24.33576913 24.35111666 23.22493986 29.13936304 18.8125 34.8125 C13.22225516 39.16046821 6.88656831 39.45157825 0 39 C-4.49148588 37.72280022 -6.44954019 35.6769396 -9.25 32 C-9.93578125 31.113125 -10.6215625 30.22625 -11.328125 29.3125 C-14.52355804 24.89264869 -14.35988555 21.32630621 -14 16 C-12.70089554 10.80358218 -10.9366685 6.44008683 -6.5625 3.1875 C-4 2 -4 2 0 2 C0 1.34 0 0.68 0 0 Z " fill="#F0FBFC" transform="translate(310,294)"/>
<path d="M0 0 C0 0.66 0 1.32 0 2 C1.11375 2.0928125 1.11375 2.0928125 2.25 2.1875 C5.93245708 3.27549868 6.93950962 4.80268735 9 8 C11.21780287 12.87916631 11.74368477 17.71793122 11 23 C8.38470176 28.44853799 3.8031128 32.41985638 -1 36 C-6.22208721 37.74069574 -11.64358744 36.98493228 -17 36 C-20 33.75 -20 33.75 -22 31 C-22.9075 30.154375 -23.815 29.30875 -24.75 28.4375 C-27.93535166 24.98670237 -27.93175961 23.22832696 -28.1875 18.625 C-27.83837135 11.87517934 -25.54664101 6.41260727 -20.625 1.75 C-14.925434 -2.04971066 -6.42010141 -2.1400338 0 0 Z " fill="#F6FDFC" transform="translate(220,296)"/>
<path d="M0 0 C4.66325571 5.2184052 4.7764377 10.66640143 4.5859375 17.5390625 C3.67597411 22.91391295 1.17170601 26.54644067 -3 30 C-7.11060228 32.18618951 -10.88523858 32.35904906 -15.5 32.4375 C-16.7890625 32.47746094 -18.078125 32.51742187 -19.40625 32.55859375 C-23.86001667 31.8663235 -25.13859211 30.37889655 -28 27 C-28.9075 26.319375 -29.815 25.63875 -30.75 24.9375 C-33.85268613 22.2657425 -33.85961492 20.24391842 -34.30859375 16.265625 C-34.59141575 9.64930427 -34.10299812 5.59482416 -29.6484375 0.5546875 C-20.88119624 -7.71394289 -9.38418436 -6.4661341 0 0 Z " fill="#F7FDFC" transform="translate(433,300)"/>
<path d="M0 0 C1.04402503 -0.00199105 2.08805005 -0.0039821 3.1637122 -0.00603348 C4.31447627 -0.00312064 5.46524034 -0.0002078 6.65087605 0.00279331 C7.87033792 0.00193889 9.0897998 0.00108446 10.34621507 0.00020415 C13.73712743 -0.00116116 17.12798244 0.00197546 20.51888788 0.00698221 C24.17326602 0.01129177 27.82764232 0.00983992 31.48202229 0.00907993 C37.81550423 0.00855502 44.14897589 0.01169842 50.48245525 0.01731777 C59.63965663 0.02543718 68.79685302 0.02804845 77.95405761 0.02930576 C92.81021935 0.03149559 107.66637561 0.03815379 122.52253437 0.04760838 C136.95580232 0.05678429 151.38906878 0.06386425 165.82233906 0.06811619 C166.71167557 0.06837891 167.60101208 0.06864164 168.51729818 0.06891232 C172.97873951 0.07021734 177.44018084 0.07148105 181.90162218 0.07272422 C218.92671201 0.08309467 255.95179562 0.1007111 292.97688007 0.12304783 C292.97688007 0.78304783 292.97688007 1.44304783 292.97688007 2.12304783 C142.99188007 2.61804783 142.99188007 2.61804783 -10.02311993 3.12304783 C-6.91171678 0.01164468 -4.19894094 -0.00176352 0 0 Z " fill="#41C2D1" transform="translate(167.02311992645264,146.87695217132568)"/>
<path d="M0 0 C3 1 3 1 4.6875 3.6875 C6.03558623 7.08981286 6.25833766 9.38327271 6 13 C6.66 13 7.32 13 8 13 C8.33 15.64 8.66 18.28 9 21 C9.66 21 10.32 21 11 21 C12.19878848 28.55480294 12.1627465 36.06531584 12.17700195 43.69921875 C12.18327705 45.18181005 12.18992476 46.66439981 12.19691467 48.14698792 C12.21783724 52.99381439 12.22830763 57.84064074 12.23828125 62.6875 C12.24233355 64.3649497 12.24645061 66.04239925 12.25063133 67.71984863 C12.26965898 75.60608554 12.28389372 83.49231324 12.2922433 91.37856865 C12.30199956 100.44044009 12.3282871 109.50206624 12.36874419 118.56385136 C12.39904411 125.59520439 12.41372533 132.62648765 12.41702431 139.65790462 C12.41935941 143.84466928 12.4281164 148.03117119 12.45348549 152.21786499 C12.47701521 156.16443735 12.4809013 160.11057858 12.47072411 164.05720329 C12.47023458 165.49213038 12.47637899 166.92708055 12.49028015 168.36194038 C12.60989371 181.4589719 10.93653678 193.69215923 4 205 C3.34 205 2.68 205 2 205 C2.28746094 204.01128906 2.57492187 203.02257812 2.87109375 202.00390625 C4.01409932 198.00086914 5.05197815 193.97574513 6.0625 189.9375 C6.32256836 188.9155957 6.32256836 188.9155957 6.58789062 187.87304688 C8.11920645 181.76538492 9.12476221 176.04587621 9.12698364 169.74247742 C9.13121338 167.88957344 9.13121338 167.88957344 9.13552856 165.99923706 C9.13358463 164.64361557 9.13153648 163.28799423 9.12939453 161.93237305 C9.13075056 160.49470475 9.13253163 159.0570368 9.13470459 157.61936951 C9.13925288 153.72721111 9.13750062 149.83507929 9.1343255 145.94292045 C9.1317909 141.87013411 9.13414229 137.79735003 9.13571167 133.7245636 C9.13752911 126.89115999 9.13513712 120.0577672 9.13037109 113.22436523 C9.1249184 105.31490074 9.12670013 97.40546197 9.1321975 89.49599808 C9.13672778 82.70695579 9.13737993 75.91792126 9.13475883 69.12887794 C9.13319698 65.0728954 9.133 61.01692499 9.13629532 56.96094322 C9.13917316 53.15326918 9.13719999 49.34562856 9.13140106 45.53795815 C9.13007346 44.13706137 9.13046759 42.7361618 9.13266373 41.33526611 C9.1353749 39.43104652 9.1313807 37.52682082 9.12698364 35.62260437 C9.12660662 34.55466487 9.12622959 33.48672537 9.12584114 32.38642406 C9.26922169 30.04625829 9.26922169 30.04625829 8 29 C7.7200705 27.63077961 7.47754037 26.25389462 7.25 24.875 C6.10377406 18.82012711 4.13200613 13.12876732 2.12109375 7.3203125 C1.29660617 4.87845034 0.56134007 2.51026233 0 0 Z " fill="#C3F6FA" transform="translate(542,202)"/>
<path d="M0 0 C0.66 0.33 1.32 0.66 2 1 C2.04679075 19.86331752 2.08202346 38.72662321 2.10362434 57.5899868 C2.11392209 66.34923624 2.12795364 75.10844954 2.15087891 83.86767578 C2.17085883 91.50521864 2.18372734 99.14273533 2.18817699 106.7803036 C2.19077659 110.82160028 2.19685531 114.86282209 2.21146011 118.9040947 C2.22511687 122.71419494 2.22920641 126.52419004 2.22621536 130.33431244 C2.22676193 131.72659249 2.23069091 133.11887635 2.23841095 134.5111351 C2.27922781 142.25745506 1.92783388 149.47564273 0 157 C-0.33 157 -0.66 157 -1 157 C-1.02337901 137.71098098 -1.04100375 118.42196483 -1.05181217 99.13293457 C-1.0569645 90.17634609 -1.06398693 81.21976642 -1.07543945 72.26318359 C-1.08541878 64.45499509 -1.09186117 56.64681298 -1.09408849 48.83861828 C-1.09539008 44.70574846 -1.09844098 40.57289691 -1.10573006 36.44003296 C-1.11254154 32.54624071 -1.11460655 28.65247417 -1.11310768 24.75867653 C-1.11338171 23.33330966 -1.11535631 21.90794188 -1.11920547 20.48258018 C-1.13695548 13.5677198 -1.0911451 6.83675719 0 0 Z " fill="#37C3D8" transform="translate(550,231)"/>
<path d="M0 0 C38.73603921 -0.04577119 77.47207435 -0.08101603 116.20813513 -0.10213066 C120.7806025 -0.10463209 125.35306982 -0.10722073 129.92553711 -0.10986328 C130.83583844 -0.1103879 131.74613977 -0.11091252 132.684026 -0.11145304 C147.4262189 -0.1201572 162.16839621 -0.13592724 176.91057987 -0.15430559 C192.03582868 -0.17300432 207.16106932 -0.18411667 222.28632921 -0.18817699 C231.62047008 -0.1909221 240.95456689 -0.19959443 250.2886942 -0.21583293 C256.68822659 -0.22639947 263.08773619 -0.22960137 269.48727668 -0.22700275 C273.18023503 -0.22572095 276.87311635 -0.22769506 280.56606102 -0.23841095 C284.57050409 -0.24994584 288.57478299 -0.24597704 292.57923889 -0.24050903 C293.74558823 -0.24633472 294.91193757 -0.2521604 296.11363083 -0.25816262 C301.80471815 -0.23710815 306.63164877 0.05865167 312 2 C312 2.66 312 3.32 312 4 C312.83917969 4.09410156 313.67835938 4.18820313 314.54296875 4.28515625 C318.4799446 5.09924278 321.77120883 6.60913621 325.3125 8.4375 C325.94478516 8.75009766 326.57707031 9.06269531 327.22851562 9.38476562 C331.86855595 11.7371119 331.86855595 11.7371119 333 14 C328.95480287 12.74567531 325.17413762 11.21189645 321.34204102 9.43603516 C314.29302767 6.18499255 307.77778415 3.82576188 300 3 C298.70902184 2.83230134 297.41804369 2.66460268 296.08794498 2.49182224 C290.34831553 1.8577964 284.63958521 1.8468836 278.870224 1.84178162 C277.67422044 1.83684364 276.47821688 1.83190566 275.24597079 1.82681805 C271.94843793 1.81417201 268.65094667 1.80584659 265.3533994 1.79939139 C261.78909503 1.79134505 258.22481164 1.77766203 254.66052246 1.76467896 C248.49249368 1.74297593 242.32446272 1.72480905 236.15641594 1.70907402 C227.2385604 1.68631892 218.32072814 1.65818406 209.40289242 1.62875474 C194.93274913 1.58114778 180.46259629 1.53786502 165.99243164 1.49731445 C151.93968971 1.45792437 137.88695625 1.41648977 123.83422852 1.37231445 C122.96737731 1.36959018 122.10052611 1.36686591 121.20740669 1.36405908 C116.85847756 1.35037903 112.50954856 1.33665887 108.16061962 1.32291877 C72.10709736 1.20906239 36.05355701 1.10222918 0 1 C0 0.67 0 0.34 0 0 Z " fill="#A5EFF9" transform="translate(169,146)"/>
<path d="M0 0 C1.25231887 -0.00085442 2.50463774 -0.00170885 3.79490566 -0.00258917 C7.25432257 -0.00481615 10.71370828 -0.00083752 14.17312121 0.0041889 C17.90989347 0.00851908 21.64666405 0.00704515 25.38343811 0.00628662 C31.85215672 0.00576301 38.32086523 0.00889278 44.7895813 0.01452446 C54.1421863 0.02266155 63.49478643 0.02525695 72.84739459 0.02651245 C88.02245202 0.0286995 103.19750408 0.03535017 118.37255859 0.04481506 C133.11116509 0.05399816 147.84977012 0.06107461 162.58837891 0.06532288 C163.49731077 0.0655856 164.40624263 0.06584832 165.34271789 0.06611901 C169.90269453 0.06742407 174.46267119 0.06868777 179.02264786 0.06993091 C216.83476383 0.08029271 254.64687368 0.09790158 292.45898438 0.12025452 C292.45898438 0.45025452 292.45898438 0.78025452 292.45898438 1.12025452 C291.83238497 1.12123133 291.20578557 1.12220813 290.56019831 1.12321454 C253.37459829 1.18156058 216.18905885 1.25541314 179.00353083 1.3492408 C174.53279036 1.36050817 170.06204958 1.37164675 165.59130859 1.38270569 C164.25631332 1.38601121 164.25631332 1.38601121 162.89434844 1.38938352 C148.50744539 1.4246996 134.12054238 1.44959579 119.73361212 1.47060154 C104.95745817 1.49240901 90.18136019 1.52550615 75.40525389 1.56895608 C66.29686186 1.5953878 57.18853948 1.61314551 48.08011103 1.61960056 C41.82344216 1.6248805 35.56686074 1.64118422 29.31023884 1.66592018 C25.70729006 1.67984649 22.10449749 1.68913958 18.50152016 1.68526268 C4.43101355 1.67305395 -8.80766903 1.93529829 -22.54101562 5.12025452 C-23.53101563 5.12025452 -24.52101562 5.12025452 -25.54101562 5.12025452 C-25.54101562 4.46025452 -25.54101562 3.80025452 -25.54101562 3.12025452 C-23.89101562 3.12025452 -22.24101562 3.12025452 -20.54101562 3.12025452 C-20.54101562 2.46025452 -20.54101562 1.80025452 -20.54101562 1.12025452 C-13.66934569 0.06801824 -6.94397629 -0.01738531 0 0 Z " fill="#E5FDFF" transform="translate(175.541015625,144.87974548339844)"/>
<path d="M0 0 C0.66 0.33 1.32 0.66 2 1 C1.73445313 2.09957031 1.46890625 3.19914063 1.1953125 4.33203125 C0.83838673 5.82548381 0.48162481 7.31897554 0.125 8.8125 C-0.04902344 9.53115234 -0.22304687 10.24980469 -0.40234375 10.99023438 C-0.95712075 13.32235249 -1.4817379 15.65949074 -2 18 C-2.17604924 18.78339941 -2.35209848 19.56679882 -2.53348255 20.37393761 C-4.09791918 28.02984054 -4.27705338 35.43699386 -4.24291992 43.23291016 C-4.24399545 44.62878 -4.24593814 46.02464939 -4.24867249 47.42051697 C-4.25347987 51.17865949 -4.24591739 54.93668148 -4.23571944 58.69480944 C-4.22687166 62.64503857 -4.22869768 66.59526468 -4.2290802 70.54550171 C-4.22814662 77.17423494 -4.21950341 83.80292211 -4.20581055 90.43164062 C-4.19007537 98.07691594 -4.1848131 105.72214094 -4.1855461 113.36743128 C-4.18622338 121.53711095 -4.17927394 129.70677144 -4.1700995 137.87644529 C-4.16797636 140.21817441 -4.16725945 142.55990041 -4.16686058 144.9016304 C-4.16585036 148.59038928 -4.15969871 152.27910654 -4.14969444 155.96785164 C-4.14541761 157.95437824 -4.14593773 159.94091338 -4.14663696 161.92744446 C-4.88888629 172.55927203 -4.88888629 172.55927203 -2 182 C-1.57660579 183.59207821 -1.21033711 185.19957573 -0.875 186.8125 C-0.68679687 187.68519531 -0.49859375 188.55789063 -0.3046875 189.45703125 C-0.00124132 191.98963976 -0.20585642 193.60079158 -1 196 C-3.87638228 189.46276754 -6.24905942 183.77004443 -6.25396729 176.5017395 C-6.25960693 175.2124202 -6.26524658 173.92310089 -6.27105713 172.5947113 C-6.26716885 171.1778864 -6.26307254 169.76106205 -6.25878906 168.34423828 C-6.26150126 166.84223766 -6.26506347 165.34023836 -6.26940918 163.83824158 C-6.27851611 159.76530516 -6.27499384 155.69247026 -6.26865101 151.61953211 C-6.26357291 147.34155671 -6.26828835 143.06358977 -6.27142334 138.78561401 C-6.27506165 131.59143524 -6.27027154 124.39729753 -6.26074219 117.203125 C-6.24989927 108.92243764 -6.25335333 100.6418491 -6.264395 92.36116421 C-6.27352136 85.22793495 -6.27472596 78.09473518 -6.26951766 70.96150196 C-6.26642184 66.71220403 -6.26592123 62.46295222 -6.27259064 58.21365738 C-6.27844019 54.20645434 -6.27423074 50.19937614 -6.26280212 46.19218636 C-6.26019386 44.73470198 -6.26085343 43.27720679 -6.26532745 41.81972694 C-6.29343963 31.71666447 -5.45401618 21.97601297 -4 12 C-3.34 12 -2.68 12 -2 12 C-1.34 8.04 -0.68 4.08 0 0 Z " fill="#9EE8F1" transform="translate(83,206)"/>
<path d="M0 0 C0 0.66 0 1.32 0 2 C1.11375 2.0928125 1.11375 2.0928125 2.25 2.1875 C5.89817919 3.26537113 7.05452793 4.7824885 9 8 C8.75 10.3125 8.75 10.3125 8 12 C6.3372974 9.32521756 5.00016187 7.0004856 4 4 C1.525 3.505 1.525 3.505 -1 3 C-1 2.34 -1 1.68 -1 1 C-2.74965358 0.94570041 -4.49979787 0.90707177 -6.25 0.875 C-7.22453125 0.85179687 -8.1990625 0.82859375 -9.203125 0.8046875 C-13.1463499 1.08005237 -15.07391059 2.09691902 -17.88671875 4.83984375 C-18.48097656 5.53207031 -19.07523438 6.22429687 -19.6875 6.9375 C-20.28949219 7.62714844 -20.89148438 8.31679688 -21.51171875 9.02734375 C-24.50448453 12.99413304 -24.36263004 17.23521 -24 22 C-23.4676465 24.72657575 -22.76448943 27.32428699 -22 30 C-26.72881356 26.60495437 -26.72881356 26.60495437 -27.8125 24.1875 C-28.47566547 16.45056955 -27.56280223 10.42172166 -23 4 C-16.87638094 -1.80132332 -7.9388436 -2.6462812 0 0 Z " fill="#B4ECF4" transform="translate(220,296)"/>
<path d="M0 0 C-0.886875 0.5775 -1.77375 1.155 -2.6875 1.75 C-4.82821092 3.16701905 -6.75223417 4.61546432 -8.75 6.25 C-11 8 -11 8 -13 8 C-13.226875 8.556875 -13.45375 9.11375 -13.6875 9.6875 C-15.37550036 12.66159588 -17.46676517 14.72008865 -20 17 C-20.66 17 -21.32 17 -22 17 C-22.309375 18.0209375 -22.309375 18.0209375 -22.625 19.0625 C-24.72917824 23.55778987 -28.06598248 26.92896762 -31.43359375 30.53515625 C-34.77752717 34.25615042 -35.94927399 37.22397268 -37 42 C-37.66 42 -38.32 42 -39 42 C-39.33 42.99 -39.66 43.98 -40 45 C-40.33 45 -40.66 45 -41 45 C-40.56826496 38.84777564 -39.34594658 35.18082051 -36 30 C-35.34 30 -34.68 30 -34 30 C-33.34 28.35 -32.68 26.7 -32 25 C-31.34 25 -30.68 25 -30 25 C-29.67 23.68 -29.34 22.36 -29 21 C-28.34 21 -27.68 21 -27 21 C-27 20.01 -27 19.02 -27 18 C-25.68 18 -24.36 18 -23 18 C-23 17.34 -23 16.68 -23 16 C-21.0324413 14.14000715 -18.94444402 12.46609802 -16.84765625 10.75390625 C-14.75201831 9.03994919 -14.75201831 9.03994919 -14 6 C-12.34795544 5.29788106 -10.68076231 4.63028587 -9 4 C-8.67 3.34 -8.34 2.68 -8 2 C-7.34 2 -6.68 2 -6 2 C-6 1.34 -6 0.68 -6 0 C-2.25 -1.125 -2.25 -1.125 0 0 Z " fill="#BFF1F5" transform="translate(126,161)"/>
<path d="M0 0 C6.60496344 -0.48036098 11.2554825 0.65937686 17 4 C19.5625 6.25 19.5625 6.25 21 8 C20.67 8.66 20.34 9.32 20 10 C18.68 9.34 17.36 8.68 16 8 C16 7.01 16 6.02 16 5 C13.12474331 4.94574987 10.25052354 4.90620723 7.375 4.875 C6.56675781 4.85824219 5.75851562 4.84148437 4.92578125 4.82421875 C0.26060623 4.7862905 -3.69801898 4.95079137 -8 7 C-8.33 7.99 -8.66 8.98 -9 10 C-9.66 10 -10.32 10 -11 10 C-10.04033823 6.77204678 -9.33900769 5.25871639 -6.625 3.1875 C-4 2 -4 2 0 2 C0 1.34 0 0.68 0 0 Z " fill="#BEF1F8" transform="translate(310,294)"/>
<path d="M0 0 C0 0.66 0 1.32 0 2 C0.99 2.33 1.98 2.66 3 3 C-9.54 3 -22.08 3 -35 3 C-26.12278894 -2.91814071 -10.3675048 -0.09384317 0 0 Z " fill="#1DC3D8" transform="translate(456,463)"/>
<path d="M0 0 C0.33 0 0.66 0 1 0 C2.20456746 13.44144325 2.20456746 13.44144325 -2.1875 19.25 C-5.8232023 23.46392947 -9.0834082 24.80209106 -14.59375 25.37109375 C-15.8828125 25.39300781 -17.171875 25.41492188 -18.5 25.4375 C-19.7890625 25.47746094 -21.078125 25.51742188 -22.40625 25.55859375 C-26.80785392 24.8744314 -28.22173654 23.38200148 -31 20 C-28 20 -28 20 -25 22 C-25 22.66 -25 23.32 -25 24 C-20.71 24 -16.42 24 -12 24 C-11.67 23.01 -11.34 22.02 -11 21 C-9.68 21 -8.36 21 -7 21 C-7 20.01 -7 19.02 -7 18 C-6.01 18 -5.02 18 -4 18 C-4 17.34 -4 16.68 -4 16 C-3.34 16 -2.68 16 -2 16 C-0.89485234 12.68455701 -0.67892369 9.79589889 -0.4375 6.3125 C-0.35371094 5.13300781 -0.26992188 3.95351563 -0.18359375 2.73828125 C-0.09271484 1.38283203 -0.09271484 1.38283203 0 0 Z " fill="#BCF0F7" transform="translate(436,307)"/>
<path d="M0 0 C0.33 0 0.66 0 1 0 C0.76595745 20.72340426 0.76595745 20.72340426 -5 29 C-5.66 29 -6.32 29 -7 29 C-6.56880859 27.51693359 -6.56880859 27.51693359 -6.12890625 26.00390625 C-4.98590068 22.00086914 -3.94802185 17.97574513 -2.9375 13.9375 C-2.76412109 13.25623047 -2.59074219 12.57496094 -2.41210938 11.87304688 C-1.42456728 7.93422956 -0.6075645 4.01493656 0 0 Z " fill="#B9F0F7" transform="translate(551,378)"/>
<path d="M0 0 C3 1 3 1 4.6875 3.6875 C6.03558623 7.08981286 6.25833766 9.38327271 6 13 C6.66 13 7.32 13 8 13 C8.85298376 16.67387495 9.10789471 20.0447393 9.0625 23.8125 C9.05347656 24.78832031 9.04445313 25.76414063 9.03515625 26.76953125 C9.02355469 27.50558594 9.01195312 28.24164063 9 29 C8.67 29 8.34 29 8 29 C7.91363281 28.45214844 7.82726562 27.90429688 7.73828125 27.33984375 C6.51092326 20.41484227 4.41556825 13.94618406 2.12109375 7.3203125 C1.29660617 4.87845034 0.56134007 2.51026233 0 0 Z " fill="#9EE7F1" transform="translate(542,202)"/>
<path d="M0 0 C5.52677733 -0.19392201 9.75614911 0.2520497 15 2 C15 2.66 15 3.32 15 4 C15.83917969 4.09410156 16.67835938 4.18820313 17.54296875 4.28515625 C21.4799446 5.09924278 24.77120883 6.60913621 28.3125 8.4375 C29.26092773 8.90639648 29.26092773 8.90639648 30.22851562 9.38476562 C34.86855595 11.7371119 34.86855595 11.7371119 36 14 C32.02896653 12.76211611 28.27312467 11.26915778 24.4921875 9.53735352 C16.4776377 5.86696472 8.56529167 3.15470619 0 1 C0 0.67 0 0.34 0 0 Z " fill="#ADEBF2" transform="translate(466,146)"/>
<path d="M0 0 C2.37160148 2.37160148 2.31983352 3.00621122 2.375 6.25 C2.24773553 10.92884096 1.11739515 13.4030056 -2 17 C-4.25704557 19.1023872 -6.5824697 21.08499004 -9 23 C-9.33 22.01 -9.66 21.02 -10 20 C-9.01 20 -8.02 20 -7 20 C-7 19.34 -7 18.68 -7 18 C-6.34 18 -5.68 18 -5 18 C-5 17.01 -5 16.02 -5 15 C-4.34 15 -3.68 15 -3 15 C-2.67 13.02 -2.34 11.04 -2 9 C-1.34 9 -0.68 9 0 9 C0 6.03 0 3.06 0 0 Z " fill="#BFF4F9" transform="translate(229,308)"/>
<path d="M0 0 C0 0.66 0 1.32 0 2 C-0.66 2 -1.32 2 -2 2 C-2.12375 2.598125 -2.2475 3.19625 -2.375 3.8125 C-3 6 -3 6 -5 9 C-5.58651191 14.68618328 -4.97539444 20.39148196 -4 26 C-7 24 -7 24 -7.66015625 22.234375 C-8.70543716 15.36195338 -9.40895358 9.08701705 -5.125 3.25 C-2.3902439 0 -2.3902439 0 0 0 Z " fill="#98E5F1" transform="translate(407,299)"/>
<path d="M0 0 C3.94120709 0.56302958 6.7508723 1.6791945 10 4 C10 4.66 10 5.32 10 6 C10.59296875 6.09152344 11.1859375 6.18304688 11.796875 6.27734375 C14.52534657 7.17232113 15.47125041 8.33906301 17.25 10.5625 C17.77078125 11.20316406 18.2915625 11.84382812 18.828125 12.50390625 C19.21484375 12.99761719 19.6015625 13.49132812 20 14 C19.67 14.66 19.34 15.32 19 16 C18.38253906 15.41992188 17.76507812 14.83984375 17.12890625 14.2421875 C12.2009906 9.69680411 7.31178179 5.64055613 1.6171875 2.09375 C1.08351563 1.7328125 0.54984375 1.371875 0 1 C0 0.67 0 0.34 0 0 Z " fill="#B6EEF5" transform="translate(506,162)"/>
<path d="M0 0 C1.32 0.33 2.64 0.66 4 1 C4 1.66 4 2.32 4 3 C4.99 3.33 5.98 3.66 7 4 C7.6875 6.0625 7.6875 6.0625 8 8 C9.32 8 10.64 8 12 8 C12 8.66 12 9.32 12 10 C14.64 10 17.28 10 20 10 C20 9.34 20 8.68 20 8 C20.66 8.33 21.32 8.66 22 9 C20.39996251 10.92812089 19.53790664 11.91300129 17.01953125 12.3203125 C10.34076095 11.72927088 6.36057061 9.05073286 2 4 C0.77734375 1.76953125 0.77734375 1.76953125 0 0 Z " fill="#4FC6D6" transform="translate(394,558)"/>
<path d="M0 0 C2.39824947 2.39824947 2.31436204 3.27335218 2.5625 6.5625 C2.58449303 9.58047788 2.58449303 9.58047788 4 12 C4.42339421 13.59207821 4.78966289 15.19957573 5.125 16.8125 C5.31320313 17.68519531 5.50140625 18.55789063 5.6953125 19.45703125 C5.99875868 21.98963976 5.79414358 23.60079158 5 26 C2.04075044 19.27443283 -0.27794671 13.61938895 -0.125 6.125 C-0.10695313 4.97257812 -0.08890625 3.82015625 -0.0703125 2.6328125 C-0.04710938 1.76398438 -0.02390625 0.89515625 0 0 Z " fill="#BDF2F8" transform="translate(77,376)"/>
<path d="M0 0 C0.66 0.33 1.32 0.66 2 1 C1.74605469 2.02996094 1.49210937 3.05992187 1.23046875 4.12109375 C-1.25559002 14.35730746 -3.2832011 24.60816424 -5 35 C-5.33 35 -5.66 35 -6 35 C-5.48594306 27.31102069 -4.9234499 19.65144206 -4 12 C-3.34 12 -2.68 12 -2 12 C-1.34 8.04 -0.68 4.08 0 0 Z " fill="#B5EFF5" transform="translate(83,206)"/>
<path d="M0 0 C2.73387879 2.73387879 2.33109208 4.37190192 2.375 8.1875 C2.28384034 14.07380964 1.67745431 17.40318211 -2 22 C-4.25 23.4375 -4.25 23.4375 -6 24 C-5.54625 23.46375 -5.0925 22.9275 -4.625 22.375 C-1.27595869 17.48024731 -0.70444959 12.44527616 -0.375 6.625 C-0.30023438 5.37976563 -0.22546875 4.13453125 -0.1484375 2.8515625 C-0.09945313 1.91054688 -0.05046875 0.96953125 0 0 Z " fill="#3EC0D4" transform="translate(334,305)"/>
<path d="M0 0 C0.99 0.33 1.98 0.66 3 1 C1.28032649 4.02990095 -0.29238306 6.76327296 -3 9 C-3.66 9 -4.32 9 -5 9 C-5.33 9.99 -5.66 10.98 -6 12 C-8.5625 13.1875 -8.5625 13.1875 -11 14 C-7.71842138 8.82390176 -4.54075781 4.14010271 0 0 Z " fill="#2EC1D4" transform="translate(109,173)"/>
<path d="M0 0 C0.66 0.33 1.32 0.66 2 1 C1 4 1 4 -2 6 C-4.33984375 6.66796875 -4.33984375 6.66796875 -6.9375 7.1875 C-7.79214844 7.36667969 -8.64679688 7.54585938 -9.52734375 7.73046875 C-12.01134859 8.00123705 -13.64449502 7.77059444 -16 7 C-13.82210673 6.0271089 -11.6429363 5.05740878 -9.4609375 4.09375 C-7.94011364 3.41782828 -6.42348795 2.73225657 -4.9140625 2.03125 C-3.30118975 1.29627001 -1.65255725 0.64078751 0 0 Z " fill="#B5EEF7" transform="translate(496,456)"/>
<path d="M0 0 C2.98155586 2.77593132 4.95008165 5.49805616 7 9 C8.31037934 10.68477344 9.63823078 12.35648543 11 14 C10.67 14.66 10.34 15.32 10 16 C5.3125 12.38671875 5.3125 12.38671875 4 11 C4 10.01 4 9.02 4 8 C3.34 8 2.68 8 2 8 C0.23537317 4.91190305 0 3.76687864 0 0 Z " fill="#AEEEF6" transform="translate(90,416)"/>
<path d="M0 0 C0.66 0 1.32 0 2 0 C1.42655063 2.86724686 1.1385485 3.8614515 -1 6 C-3.09375 6.23046875 -3.09375 6.23046875 -5.5 6.1875 C-6.2940625 6.18105469 -7.088125 6.17460938 -7.90625 6.16796875 C-10 6 -10 6 -12 5 C-12 4.34 -12 3.68 -12 3 C-8.37 3 -4.74 3 -1 3 C-0.67 2.01 -0.34 1.02 0 0 Z " fill="#C2F3F8" transform="translate(416,566)"/>
<path d="M0 0 C2.31 0 4.62 0 7 0 C7 0.66 7 1.32 7 2 C8.7290774 2.02725341 10.45828176 2.04650987 12.1875 2.0625 C13.63189453 2.07990234 13.63189453 2.07990234 15.10546875 2.09765625 C17.85576513 2.00486622 20.32479591 1.62111685 23 1 C22.67 1.66 22.34 2.32 22 3 C18.47693008 4.17435664 15.2323872 4.25972118 11.5625 4.3125 C10.24378906 4.34988281 8.92507813 4.38726562 7.56640625 4.42578125 C4 4 4 4 1.52734375 1.98046875 C1.02332031 1.32691406 0.51929688 0.67335938 0 0 Z " fill="#E4FCFE" transform="translate(303,327)"/>
<path d="M0 0 C0.66 0 1.32 0 2 0 C1.54554036 1.41791408 1.08625056 2.83428046 0.625 4.25 C0.36976562 5.03890625 0.11453125 5.8278125 -0.1484375 6.640625 C-0.95277852 8.86916618 -1.94215378 10.88430757 -3 13 C-3.69730806 15.3243602 -4.36912152 17.65673706 -5 20 C-6.27061919 17.45876161 -5.83980889 16.53905731 -5.1875 13.8125 C-4.99800781 13.01585937 -4.80851562 12.21921875 -4.61328125 11.3984375 C-3.80664102 8.24380627 -2.9295503 5.12063316 -2 2 C-1.34 2 -0.68 2 0 2 C0 1.34 0 0.68 0 0 Z " fill="#2CBDD0" transform="translate(89,201)"/>
<path d="M0 0 C5.98993047 -0.3152595 9.63560356 0.31780178 15 3 C13 4 13 4 11.3125 3.5625 C5.88992575 2.24349545 0.4341592 3.11279034 -5 4 C-4.67 3.34 -4.34 2.68 -4 2 C-2.68 2 -1.36 2 0 2 C0 1.34 0 0.68 0 0 Z " fill="#97E2EE" transform="translate(310,294)"/>
<path d="M0 0 C4.62 0 9.24 0 14 0 C14 0.33 14 0.66 14 1 C11.39643759 1.50333542 8.79223349 2.00279378 6.1875 2.5 C5.44951172 2.64308594 4.71152344 2.78617188 3.95117188 2.93359375 C0.92205609 3.50926281 -1.909196 4 -5 4 C-5 3.34 -5 2.68 -5 2 C-3.35 2 -1.7 2 0 2 C0 1.34 0 0.68 0 0 Z " fill="#C8F7FA" transform="translate(155,146)"/>
<path d="M0 0 C-2.60197202 1.00605593 -5.20629362 2.00502525 -7.8125 3 C-8.91948242 3.42925781 -8.91948242 3.42925781 -10.04882812 3.8671875 C-10.76103516 4.13789063 -11.47324219 4.40859375 -12.20703125 4.6875 C-12.8616333 4.93886719 -13.51623535 5.19023437 -14.19067383 5.44921875 C-16 6 -16 6 -19 6 C-16.76362469 3.76362469 -14.90380073 3.16152029 -12 2 C-11.34 1.34 -10.68 0.68 -10 0 C-6.25591431 -0.89532484 -3.6700919 -1.05654161 0 0 Z " fill="#A3EAF0" transform="translate(150,151)"/>
<path d="M0 0 C1.37095624 3.69037278 0.60010967 5.70883835 -0.9375 9.25 C-1.31777344 10.14203125 -1.69804688 11.0340625 -2.08984375 11.953125 C-2.39019531 12.62859375 -2.69054687 13.3040625 -3 14 C-3.66 14 -4.32 14 -5 14 C-4.34580901 8.93001981 -2.1453591 4.58009223 0 0 Z " fill="#ABEBF3" transform="translate(543,407)"/>
<path d="M0 0 C1.98 0.66 3.96 1.32 6 2 C6 2.66 6 3.32 6 4 C6.66 4 7.32 4 8 4 C8.33 5.65 8.66 7.3 9 9 C5.4781747 7.04343039 2.65557215 5.04899025 0 2 C0 1.34 0 0.68 0 0 Z " fill="#68CFE1" transform="translate(385,549)"/>
<path d="M0 0 C6.20988129 0.44356295 10.60540561 1.91532502 16 5 C15.67 5.66 15.34 6.32 15 7 C7.575 4.03 7.575 4.03 0 1 C0 0.67 0 0.34 0 0 Z " fill="#30BACD" transform="translate(482,153)"/>
<path d="M0 0 C0 0.33 0 0.66 0 1 C-0.88042969 1.12117188 -1.76085937 1.24234375 -2.66796875 1.3671875 C-3.82941406 1.53476562 -4.99085938 1.70234375 -6.1875 1.875 C-7.91033203 2.11863281 -7.91033203 2.11863281 -9.66796875 2.3671875 C-12.68724625 2.94060245 -15.20575848 3.74759043 -18 5 C-17.67 4.01 -17.34 3.02 -17 2 C-11.35948428 -0.28020848 -6.01998014 -0.21802745 0 0 Z " fill="#5ACADB" transform="translate(423,294)"/>
<path d="M0 0 C5.52289491 2.23545746 8.44984265 5.40493818 12 10 C7.25 8.125 7.25 8.125 5 7 C4.67 6.01 4.34 5.02 4 4 C1.99983534 2.79117904 1.99983534 2.79117904 0 2 C0 1.34 0 0.68 0 0 Z " fill="#ABEBF1" transform="translate(112,443)"/>
<path d="M0 0 C0.95837449 3.04626176 1.01658162 5.09213636 0.25 8.1875 C0.01023437 9.22970703 0.01023437 9.22970703 -0.234375 10.29296875 C-0.61335937 11.13794922 -0.61335937 11.13794922 -1 12 C-1.99 12.33 -2.98 12.66 -4 13 C-2.77443263 8.62297367 -1.46939453 4.30322683 0 0 Z " fill="#A0E9F1" transform="translate(548,394)"/>
<path d="M0 0 C3 1 3 1 4.6875 3.75 C5.93950669 6.85020705 6.28970125 8.71671912 6 12 C3.25207517 8.59780735 0 4.51535412 0 0 Z " fill="#BEF1F8" transform="translate(542,202)"/>
<path d="M0 0 C0.99 0 1.98 0 3 0 C3.33 1.98 3.66 3.96 4 6 C4.66 6 5.32 6 6 6 C6.33 8.31 6.66 10.62 7 13 C4.33460579 11.6673029 4.09127027 10.3361408 2.9375 7.625 C2.59589844 6.83351562 2.25429688 6.04203125 1.90234375 5.2265625 C1.20599614 3.50830216 0.5862865 1.7588595 0 0 Z " fill="#B0EDF4" transform="translate(535,189)"/>
<path d="M0 0 C0.84304687 0.42925781 0.84304687 0.42925781 1.703125 0.8671875 C4.02870923 2.01415931 6.37770201 3.07839794 8.75 4.125 C9.54921875 4.47820312 10.3484375 4.83140625 11.171875 5.1953125 C11.77515625 5.46085937 12.3784375 5.72640625 13 6 C10.49981892 7.25009054 9.66064722 6.86733449 7 6.1875 C5.948125 5.93033203 5.948125 5.93033203 4.875 5.66796875 C3 5 3 5 1 3 C0.67 2.01 0.34 1.02 0 0 Z " fill="#BEF2F9" transform="translate(130,455)"/>
<path d="M0 0 C4.13621084 3.3810038 7.81316569 6.66590534 11 11 C8.6875 10.8125 8.6875 10.8125 6 10 C4.375 7.625 4.375 7.625 3 5 C2.443125 4.443125 1.88625 3.88625 1.3125 3.3125 C0.879375 2.879375 0.44625 2.44625 0 2 C0 1.34 0 0.68 0 0 Z " fill="#ABE6EC" transform="translate(101,432)"/>
<path d="M0 0 C4.43090471 1.20842856 6.98112756 2.51668565 10 6 C9.67 6.66 9.34 7.32 9 8 C8.34 7.67 7.68 7.34 7 7 C7 6.34 7 5.68 7 5 C6.34 5 5.68 5 5 5 C5 4.34 5 3.68 5 3 C3.35 2.67 1.7 2.34 0 2 C0 1.34 0 0.68 0 0 Z " fill="#B2F1F8" transform="translate(425,297)"/>
<path d="M0 0 C0 3.41356386 -0.32916247 5.02155049 -2 8 C-4.25078583 9.61141711 -6.50914849 10.75457424 -9 12 C-7.97895872 9.53248357 -7.2325011 8.17250081 -5.0625 6.5625 C-2.59724372 4.69488161 -1.45877139 2.69872707 0 0 Z " fill="#BDF1F7" transform="translate(537,421)"/>
<path d="M0 0 C1.32 0 2.64 0 4 0 C3.4375 1.9375 3.4375 1.9375 2 4 C-1.625 4.75 -1.625 4.75 -5 5 C-4.34 4.01 -3.68 3.02 -3 2 C-2.01 2 -1.02 2 0 2 C0 1.34 0 0.68 0 0 Z " fill="#27BFD3" transform="translate(131,158)"/>
<path d="M0 0 C0.33 0.66 0.66 1.32 1 2 C-2.17320782 5.53586014 -4.16743695 7.58578031 -9 8 C-6.14723863 5.06799526 -3.34920216 2.35684596 0 0 Z " fill="#B4ECF2" transform="translate(517,443)"/>
<path d="M0 0 C-1.5625 2 -1.5625 2 -4 4 C-7.75 4.25 -7.75 4.25 -11 4 C-9.71264403 1.42528807 -8.71510189 1.29583343 -6.0625 0.3125 C-5.35222656 0.04050781 -4.64195312 -0.23148438 -3.91015625 -0.51171875 C-2 -1 -2 -1 0 0 Z " fill="#39C5D3" transform="translate(144,154)"/>
<path d="M0 0 C6.57142857 4 6.57142857 4 8 8 C5.525 7.01 5.525 7.01 3 6 C3 5.34 3 4.68 3 4 C2.34 4 1.68 4 1 4 C0.67 2.68 0.34 1.36 0 0 Z " fill="#BEF1F7" transform="translate(320,478)"/>
<path d="M0 0 C2.18840439 3.28260659 4.15885893 6.50818073 6 10 C5.67 10.66 5.34 11.32 5 12 C2.69857565 10.21825212 1.19965609 8.83695835 0.51171875 5.953125 C0.27676898 3.9753389 0.13248542 1.98728128 0 0 Z " fill="#BEF4FA" transform="translate(84,404)"/>
<path d="M0 0 C0.33 0.66 0.66 1.32 1 2 C0.06421005 4.35981813 -0.93347808 6.69631264 -2 9 C-2.99 8.67 -3.98 8.34 -5 8 C-3.62845496 5.04590299 -2.01136276 2.55991624 0 0 Z " fill="#4EC8DA" transform="translate(436,321)"/>
<path d="M0 0 C1.258125 0.12375 2.51625 0.2475 3.8125 0.375 C4.87404297 0.47941406 4.87404297 0.47941406 5.95703125 0.5859375 C8 1 8 1 11 3 C3.49230769 3.36923077 3.49230769 3.36923077 1 1.5 C0.67 1.005 0.34 0.51 0 0 Z " fill="#B9EEF6" transform="translate(144,462)"/>
<path d="M0 0 C1.46726798 3.81489674 0.43336419 6.29011622 -1 10 C-2.125 8.3125 -2.125 8.3125 -3 6 C-1.7 1.7 -1.7 1.7 0 0 Z " fill="#3BC7D8" transform="translate(548,390)"/>
<path d="M0 0 C2.475 0.495 2.475 0.495 5 1 C5.66 3.31 6.32 5.62 7 8 C4.35247996 5.42215154 2.05567935 3.08351902 0 0 Z " fill="#45C2D5" transform="translate(339,497)"/>
<path d="M0 0 C-1.39332574 3.36720387 -2.9789286 4.9859524 -6 7 C-5.37162381 3.35541809 -4.14650034 0 0 0 Z " fill="#38C0D2" transform="translate(525,434)"/>
<path d="M0 0 C0.66 0.33 1.32 0.66 2 1 C1.67 1.99 1.34 2.98 1 4 C0.34 4 -0.32 4 -1 4 C-1.33 4.99 -1.66 5.98 -2 7 C-2.33 7 -2.66 7 -3 7 C-3.1875 4.625 -3.1875 4.625 -3 2 C-2.01 1.34 -1.02 0.68 0 0 Z " fill="#B2EEF5" transform="translate(88,199)"/>
<path d="M0 0 C0.66 0.33 1.32 0.66 2 1 C0.1875 4 0.1875 4 -2 7 C-2.99 7 -3.98 7 -5 7 C-5 5 -5 5 -2.5 2.375 C-1.675 1.59125 -0.85 0.8075 0 0 Z " fill="#48C5D7" transform="translate(109,173)"/>
</svg>
